<svg xmlns="http://www.w3.org/2000/svg" viewBox="0 0 26.3 25.57"><defs><style>.cls-1{fill:#272727;}.cls-2,.cls-3{fill:#fff;}.cls-3{fill-rule:evenodd;}</style></defs><g><rect class="cls-1" width="26.3" height="25.57"/></g><g><path class="cls-2" d="M9,14a1,1,0,1,0-1-1A1,1,0,0,0,9,14Z" transform="translate(1.09 0.54)"/><path class="cls-2" d="M16,13a1,1,0,1,1-1-1A1,1,0,0,1,16,13Z" transform="translate(1.09 0.54)"/><path class="cls-3" d="M12,22A10,10,0,1,0,2,12,10,10,0,0,0,12,22Zm0-2A8,8,0,0,0,19.63,9.6,9.79,9.79,0,0,1,17,10a10,10,0,0,1-8.7-5.06A8,8,0,0,0,12,20Z" transform="translate(1.09 0.54)"/></g></svg>